# xmcd
#
# Track frame offsets:
#	182
#	16240
#	34735
#	48502
#	61847
#	88437
#	105317
#	131717
#	156535
#	177112
#	192882
#	214810
#	249362
#	270292
#	296192
#	326460
#
# Disc length: 4652 seconds
#
# Revision: 1
# Processed by: cddbd v1.5.2PL0 Copyright (c) Steve Scherf et al.
# Submitted via: audiograbber 1.83.01
#
DISCID=e3122a10
DTITLE=Chocolate Milk - THE BEST OF CHOCOLATE MILK
DYEAR=1983
DGENRE=Funk
TTITLE0=Action Speaks Louder Than Words
TTITLE1=Pretty Pimpin' Willie
TTITLE2=Ain't Nothin' But A Thing
TTITLE3=People
TTITLE4=How About Love
TTITLE5=Running Away
TTITLE6=Comin'
TTITLE7=Girl Callin'
TTITLE8=Say Won'tcha
TTITLE9=Groove City
TTITLE10=Hey Lover
TTITLE11=Blue Jeans
TTITLE12=Let's Go All The Way
TTITLE13=Take It Off
TTITLE14=Who's Getting It Now
TTITLE15=Honey Bun
EXTD=
EXTT0=
EXTT1=
EXTT2=
EXTT3=
EXTT4=
EXTT5=
EXTT6=
EXTT7=
EXTT8=
EXTT9=
EXTT10=
EXTT11=
EXTT12=
EXTT13=
EXTT14=
EXTT15=
PLAYORDER=
